<mxfile host="app.diagrams.net" modified="2023-08-16T09:56:16.114Z" agent="Mozilla/5.0 (Windows NT 10.0; Win64; x64) AppleWebKit/537.36 (KHTML, like Gecko) Chrome/115.0.0.0 Safari/537.36 Edg/115.0.1901.203" etag="yxEtjeO78VE3GPqBeXuH" version="21.5.0" type="device">
  <diagram name="Page-1" id="Q2UnlR7mQOwPbrCm31WH">
    <mxGraphModel dx="1172" dy="728" grid="1" gridSize="10" guides="1" tooltips="1" connect="1" arrows="1" fold="1" page="1" pageScale="1" pageWidth="827" pageHeight="1169" math="0" shadow="0">
      <root>
        <mxCell id="0" />
        <mxCell id="1" parent="0" />
        <mxCell id="97QvW6mPX6YaauCwHjOO-7" style="edgeStyle=orthogonalEdgeStyle;rounded=0;orthogonalLoop=1;jettySize=auto;html=1;exitX=0.5;exitY=0.5;exitDx=0;exitDy=0;exitPerimeter=0;entryX=0.5;entryY=0;entryDx=0;entryDy=0;entryPerimeter=0;" edge="1" parent="1" source="97QvW6mPX6YaauCwHjOO-1" target="97QvW6mPX6YaauCwHjOO-4">
          <mxGeometry relative="1" as="geometry" />
        </mxCell>
        <mxCell id="97QvW6mPX6YaauCwHjOO-8" style="edgeStyle=orthogonalEdgeStyle;rounded=0;orthogonalLoop=1;jettySize=auto;html=1;exitX=0.5;exitY=0.5;exitDx=0;exitDy=0;exitPerimeter=0;entryX=0.5;entryY=0;entryDx=0;entryDy=0;entryPerimeter=0;" edge="1" parent="1" source="97QvW6mPX6YaauCwHjOO-1" target="97QvW6mPX6YaauCwHjOO-2">
          <mxGeometry relative="1" as="geometry" />
        </mxCell>
        <mxCell id="97QvW6mPX6YaauCwHjOO-22" style="edgeStyle=orthogonalEdgeStyle;rounded=0;orthogonalLoop=1;jettySize=auto;html=1;exitX=0.5;exitY=0;exitDx=0;exitDy=0;exitPerimeter=0;entryX=0;entryY=1;entryDx=0;entryDy=0;endArrow=baseDash;endFill=0;" edge="1" parent="1" source="97QvW6mPX6YaauCwHjOO-1" target="97QvW6mPX6YaauCwHjOO-11">
          <mxGeometry relative="1" as="geometry" />
        </mxCell>
        <mxCell id="97QvW6mPX6YaauCwHjOO-60" style="edgeStyle=orthogonalEdgeStyle;rounded=0;orthogonalLoop=1;jettySize=auto;html=1;entryX=0;entryY=0.5;entryDx=0;entryDy=0;endArrow=baseDash;endFill=0;" edge="1" parent="1" source="97QvW6mPX6YaauCwHjOO-1" target="97QvW6mPX6YaauCwHjOO-46">
          <mxGeometry relative="1" as="geometry">
            <Array as="points">
              <mxPoint x="159" y="241" />
            </Array>
          </mxGeometry>
        </mxCell>
        <mxCell id="97QvW6mPX6YaauCwHjOO-61" style="edgeStyle=orthogonalEdgeStyle;rounded=0;orthogonalLoop=1;jettySize=auto;html=1;exitX=0.5;exitY=0;exitDx=0;exitDy=0;exitPerimeter=0;endArrow=baseDash;endFill=0;" edge="1" parent="1" source="97QvW6mPX6YaauCwHjOO-1" target="97QvW6mPX6YaauCwHjOO-54">
          <mxGeometry relative="1" as="geometry">
            <Array as="points">
              <mxPoint x="159" y="564" />
              <mxPoint x="564" y="564" />
              <mxPoint x="564" y="427" />
            </Array>
          </mxGeometry>
        </mxCell>
        <mxCell id="97QvW6mPX6YaauCwHjOO-66" style="edgeStyle=orthogonalEdgeStyle;rounded=0;orthogonalLoop=1;jettySize=auto;html=1;entryX=0;entryY=0.5;entryDx=0;entryDy=0;endArrow=baseDash;endFill=0;" edge="1" parent="1" source="97QvW6mPX6YaauCwHjOO-1" target="97QvW6mPX6YaauCwHjOO-40">
          <mxGeometry relative="1" as="geometry">
            <Array as="points">
              <mxPoint x="159" y="504" />
              <mxPoint x="284" y="504" />
              <mxPoint x="284" y="469" />
            </Array>
          </mxGeometry>
        </mxCell>
        <mxCell id="97QvW6mPX6YaauCwHjOO-1" value="User" style="shape=umlActor;verticalLabelPosition=bottom;verticalAlign=top;html=1;outlineConnect=0;" vertex="1" parent="1">
          <mxGeometry x="144" y="254" width="30" height="60" as="geometry" />
        </mxCell>
        <mxCell id="97QvW6mPX6YaauCwHjOO-29" style="edgeStyle=orthogonalEdgeStyle;rounded=0;orthogonalLoop=1;jettySize=auto;html=1;entryX=0.26;entryY=0.98;entryDx=0;entryDy=0;entryPerimeter=0;endArrow=baseDash;endFill=0;" edge="1" parent="1" source="97QvW6mPX6YaauCwHjOO-2" target="97QvW6mPX6YaauCwHjOO-10">
          <mxGeometry relative="1" as="geometry">
            <Array as="points">
              <mxPoint x="314" y="444" />
              <mxPoint x="314" y="234" />
              <mxPoint x="377" y="234" />
              <mxPoint x="377" y="203" />
            </Array>
          </mxGeometry>
        </mxCell>
        <mxCell id="97QvW6mPX6YaauCwHjOO-38" style="edgeStyle=orthogonalEdgeStyle;rounded=0;orthogonalLoop=1;jettySize=auto;html=1;entryX=0;entryY=0.5;entryDx=0;entryDy=0;endArrow=baseDash;endFill=0;" edge="1" parent="1" source="97QvW6mPX6YaauCwHjOO-2" target="97QvW6mPX6YaauCwHjOO-31">
          <mxGeometry relative="1" as="geometry">
            <Array as="points">
              <mxPoint x="324" y="444" />
              <mxPoint x="324" y="289" />
            </Array>
          </mxGeometry>
        </mxCell>
        <mxCell id="97QvW6mPX6YaauCwHjOO-39" style="edgeStyle=orthogonalEdgeStyle;rounded=0;orthogonalLoop=1;jettySize=auto;html=1;entryX=0;entryY=0.5;entryDx=0;entryDy=0;endArrow=baseDash;endFill=0;" edge="1" parent="1" source="97QvW6mPX6YaauCwHjOO-2" target="97QvW6mPX6YaauCwHjOO-32">
          <mxGeometry relative="1" as="geometry">
            <Array as="points">
              <mxPoint x="334" y="444" />
              <mxPoint x="334" y="379" />
            </Array>
          </mxGeometry>
        </mxCell>
        <mxCell id="97QvW6mPX6YaauCwHjOO-2" value="Registered User" style="shape=umlActor;verticalLabelPosition=bottom;verticalAlign=top;html=1;outlineConnect=0;" vertex="1" parent="1">
          <mxGeometry x="214" y="414" width="30" height="60" as="geometry" />
        </mxCell>
        <mxCell id="97QvW6mPX6YaauCwHjOO-4" value="Non-Registered User" style="shape=umlActor;verticalLabelPosition=bottom;verticalAlign=top;html=1;outlineConnect=0;" vertex="1" parent="1">
          <mxGeometry x="74" y="414" width="30" height="60" as="geometry" />
        </mxCell>
        <mxCell id="97QvW6mPX6YaauCwHjOO-34" style="edgeStyle=orthogonalEdgeStyle;rounded=0;orthogonalLoop=1;jettySize=auto;html=1;entryX=1;entryY=0.5;entryDx=0;entryDy=0;endArrow=baseDash;endFill=0;" edge="1" parent="1" source="97QvW6mPX6YaauCwHjOO-9" target="97QvW6mPX6YaauCwHjOO-33">
          <mxGeometry relative="1" as="geometry" />
        </mxCell>
        <mxCell id="97QvW6mPX6YaauCwHjOO-44" style="edgeStyle=orthogonalEdgeStyle;rounded=0;orthogonalLoop=1;jettySize=auto;html=1;entryX=1;entryY=0.5;entryDx=0;entryDy=0;endArrow=baseDash;endFill=0;" edge="1" parent="1" source="97QvW6mPX6YaauCwHjOO-9" target="97QvW6mPX6YaauCwHjOO-40">
          <mxGeometry relative="1" as="geometry" />
        </mxCell>
        <mxCell id="97QvW6mPX6YaauCwHjOO-9" value="Admin" style="shape=umlActor;verticalLabelPosition=bottom;verticalAlign=top;html=1;outlineConnect=0;" vertex="1" parent="1">
          <mxGeometry x="754" y="334" width="30" height="60" as="geometry" />
        </mxCell>
        <mxCell id="97QvW6mPX6YaauCwHjOO-41" style="edgeStyle=orthogonalEdgeStyle;rounded=0;orthogonalLoop=1;jettySize=auto;html=1;exitX=0;exitY=0.5;exitDx=0;exitDy=0;" edge="1" parent="1">
          <mxGeometry relative="1" as="geometry">
            <mxPoint x="348" y="179" as="targetPoint" />
            <mxPoint x="348" y="179" as="sourcePoint" />
          </mxGeometry>
        </mxCell>
        <mxCell id="97QvW6mPX6YaauCwHjOO-10" value="Manage Article" style="ellipse;whiteSpace=wrap;html=1;" vertex="1" parent="1">
          <mxGeometry x="354" y="154" width="120" height="50" as="geometry" />
        </mxCell>
        <mxCell id="97QvW6mPX6YaauCwHjOO-16" style="edgeStyle=orthogonalEdgeStyle;rounded=0;orthogonalLoop=1;jettySize=auto;html=1;exitX=1;exitY=0.5;exitDx=0;exitDy=0;" edge="1" parent="1">
          <mxGeometry relative="1" as="geometry">
            <mxPoint x="354" y="179" as="targetPoint" />
            <mxPoint x="333.0000000000007" y="179.005" as="sourcePoint" />
          </mxGeometry>
        </mxCell>
        <mxCell id="97QvW6mPX6YaauCwHjOO-11" value="View" style="ellipse;whiteSpace=wrap;html=1;" vertex="1" parent="1">
          <mxGeometry x="263" y="165.67" width="80" height="26.67" as="geometry" />
        </mxCell>
        <mxCell id="97QvW6mPX6YaauCwHjOO-27" style="edgeStyle=orthogonalEdgeStyle;rounded=0;orthogonalLoop=1;jettySize=auto;html=1;entryX=0.5;entryY=0;entryDx=0;entryDy=0;" edge="1" parent="1">
          <mxGeometry relative="1" as="geometry">
            <mxPoint x="454" y="139.67000000000007" as="sourcePoint" />
            <mxPoint x="425" y="154" as="targetPoint" />
          </mxGeometry>
        </mxCell>
        <mxCell id="97QvW6mPX6YaauCwHjOO-12" value="Edit" style="ellipse;whiteSpace=wrap;html=1;" vertex="1" parent="1">
          <mxGeometry x="414" y="113.99999999999999" width="80" height="26.67" as="geometry" />
        </mxCell>
        <mxCell id="97QvW6mPX6YaauCwHjOO-24" style="edgeStyle=orthogonalEdgeStyle;rounded=0;orthogonalLoop=1;jettySize=auto;html=1;entryX=0;entryY=0;entryDx=0;entryDy=0;" edge="1" parent="1">
          <mxGeometry relative="1" as="geometry">
            <mxPoint x="354" y="138.67000000000007" as="sourcePoint" />
            <mxPoint x="371.57359312880703" y="159.32233047033617" as="targetPoint" />
          </mxGeometry>
        </mxCell>
        <mxCell id="97QvW6mPX6YaauCwHjOO-13" value="Create" style="ellipse;whiteSpace=wrap;html=1;" vertex="1" parent="1">
          <mxGeometry x="314" y="114" width="80" height="26.67" as="geometry" />
        </mxCell>
        <mxCell id="97QvW6mPX6YaauCwHjOO-28" style="edgeStyle=orthogonalEdgeStyle;rounded=0;orthogonalLoop=1;jettySize=auto;html=1;exitX=0;exitY=0.5;exitDx=0;exitDy=0;entryX=1;entryY=0;entryDx=0;entryDy=0;" edge="1" parent="1">
          <mxGeometry relative="1" as="geometry">
            <mxPoint x="513.9999999999964" y="162.33500000000004" as="sourcePoint" />
            <mxPoint x="466.42640687119297" y="166.32233047033628" as="targetPoint" />
          </mxGeometry>
        </mxCell>
        <mxCell id="97QvW6mPX6YaauCwHjOO-14" value="Delete" style="ellipse;whiteSpace=wrap;html=1;" vertex="1" parent="1">
          <mxGeometry x="504" y="143.99999999999997" width="80" height="26.67" as="geometry" />
        </mxCell>
        <mxCell id="97QvW6mPX6YaauCwHjOO-21" style="edgeStyle=orthogonalEdgeStyle;rounded=0;orthogonalLoop=1;jettySize=auto;html=1;entryX=0;entryY=0.75;entryDx=0;entryDy=0;entryPerimeter=0;dashed=1;endArrow=baseDash;endFill=0;" edge="1" parent="1" source="97QvW6mPX6YaauCwHjOO-74" target="97QvW6mPX6YaauCwHjOO-13">
          <mxGeometry relative="1" as="geometry">
            <mxPoint x="354" y="244" as="targetPoint" />
          </mxGeometry>
        </mxCell>
        <mxCell id="97QvW6mPX6YaauCwHjOO-15" value="Draft Save" style="ellipse;whiteSpace=wrap;html=1;" vertex="1" parent="1">
          <mxGeometry x="144" y="114" width="80" height="26.67" as="geometry" />
        </mxCell>
        <mxCell id="97QvW6mPX6YaauCwHjOO-31" value="Manage profile" style="ellipse;whiteSpace=wrap;html=1;" vertex="1" parent="1">
          <mxGeometry x="354" y="264" width="120" height="50" as="geometry" />
        </mxCell>
        <mxCell id="97QvW6mPX6YaauCwHjOO-32" value="Manage domain" style="ellipse;whiteSpace=wrap;html=1;" vertex="1" parent="1">
          <mxGeometry x="354" y="354" width="120" height="50" as="geometry" />
        </mxCell>
        <mxCell id="97QvW6mPX6YaauCwHjOO-35" style="edgeStyle=orthogonalEdgeStyle;rounded=0;orthogonalLoop=1;jettySize=auto;html=1;exitX=0;exitY=0.5;exitDx=0;exitDy=0;entryX=0.937;entryY=0.884;entryDx=0;entryDy=0;entryPerimeter=0;endArrow=baseDash;endFill=0;dashed=1;" edge="1" parent="1" source="97QvW6mPX6YaauCwHjOO-75" target="97QvW6mPX6YaauCwHjOO-10">
          <mxGeometry relative="1" as="geometry">
            <Array as="points" />
          </mxGeometry>
        </mxCell>
        <mxCell id="97QvW6mPX6YaauCwHjOO-36" style="edgeStyle=orthogonalEdgeStyle;rounded=0;orthogonalLoop=1;jettySize=auto;html=1;exitX=0;exitY=0.5;exitDx=0;exitDy=0;entryX=1;entryY=0.5;entryDx=0;entryDy=0;dashed=1;endArrow=baseDash;endFill=0;" edge="1" parent="1" source="97QvW6mPX6YaauCwHjOO-77" target="97QvW6mPX6YaauCwHjOO-32">
          <mxGeometry relative="1" as="geometry">
            <Array as="points" />
          </mxGeometry>
        </mxCell>
        <mxCell id="97QvW6mPX6YaauCwHjOO-37" style="edgeStyle=orthogonalEdgeStyle;rounded=0;orthogonalLoop=1;jettySize=auto;html=1;entryX=1;entryY=0.5;entryDx=0;entryDy=0;dashed=1;endArrow=baseDash;endFill=0;" edge="1" parent="1" source="97QvW6mPX6YaauCwHjOO-80" target="97QvW6mPX6YaauCwHjOO-31">
          <mxGeometry relative="1" as="geometry">
            <Array as="points">
              <mxPoint x="484" y="289" />
            </Array>
          </mxGeometry>
        </mxCell>
        <mxCell id="97QvW6mPX6YaauCwHjOO-33" value="Log&amp;nbsp; On" style="ellipse;whiteSpace=wrap;html=1;" vertex="1" parent="1">
          <mxGeometry x="574" y="284" width="120" height="50" as="geometry" />
        </mxCell>
        <mxCell id="97QvW6mPX6YaauCwHjOO-40" value="Manage comment" style="ellipse;whiteSpace=wrap;html=1;" vertex="1" parent="1">
          <mxGeometry x="354" y="444" width="120" height="50" as="geometry" />
        </mxCell>
        <mxCell id="97QvW6mPX6YaauCwHjOO-51" style="edgeStyle=orthogonalEdgeStyle;rounded=0;orthogonalLoop=1;jettySize=auto;html=1;exitX=0.5;exitY=1;exitDx=0;exitDy=0;entryX=0.5;entryY=0;entryDx=0;entryDy=0;" edge="1" parent="1" source="97QvW6mPX6YaauCwHjOO-46" target="97QvW6mPX6YaauCwHjOO-31">
          <mxGeometry relative="1" as="geometry" />
        </mxCell>
        <mxCell id="97QvW6mPX6YaauCwHjOO-46" value="View" style="ellipse;whiteSpace=wrap;html=1;" vertex="1" parent="1">
          <mxGeometry x="377" y="227.32999999999998" width="80" height="26.67" as="geometry" />
        </mxCell>
        <mxCell id="97QvW6mPX6YaauCwHjOO-53" style="edgeStyle=orthogonalEdgeStyle;rounded=0;orthogonalLoop=1;jettySize=auto;html=1;exitX=0.5;exitY=0;exitDx=0;exitDy=0;" edge="1" parent="1" source="97QvW6mPX6YaauCwHjOO-47">
          <mxGeometry relative="1" as="geometry">
            <mxPoint x="394" y="304" as="targetPoint" />
          </mxGeometry>
        </mxCell>
        <mxCell id="97QvW6mPX6YaauCwHjOO-47" value="Edit" style="ellipse;whiteSpace=wrap;html=1;" vertex="1" parent="1">
          <mxGeometry x="334" y="324" width="80" height="26.67" as="geometry" />
        </mxCell>
        <mxCell id="97QvW6mPX6YaauCwHjOO-52" style="edgeStyle=orthogonalEdgeStyle;rounded=0;orthogonalLoop=1;jettySize=auto;html=1;exitX=0.5;exitY=0;exitDx=0;exitDy=0;" edge="1" parent="1" source="97QvW6mPX6YaauCwHjOO-49">
          <mxGeometry relative="1" as="geometry">
            <mxPoint x="454" y="304" as="targetPoint" />
          </mxGeometry>
        </mxCell>
        <mxCell id="97QvW6mPX6YaauCwHjOO-49" value="Delete" style="ellipse;whiteSpace=wrap;html=1;" vertex="1" parent="1">
          <mxGeometry x="424" y="323.99999999999994" width="80" height="26.67" as="geometry" />
        </mxCell>
        <mxCell id="97QvW6mPX6YaauCwHjOO-58" style="edgeStyle=orthogonalEdgeStyle;rounded=0;orthogonalLoop=1;jettySize=auto;html=1;exitX=0.5;exitY=0;exitDx=0;exitDy=0;entryX=0.707;entryY=1.092;entryDx=0;entryDy=0;entryPerimeter=0;" edge="1" parent="1" source="97QvW6mPX6YaauCwHjOO-54" target="97QvW6mPX6YaauCwHjOO-32">
          <mxGeometry relative="1" as="geometry" />
        </mxCell>
        <mxCell id="97QvW6mPX6YaauCwHjOO-54" value="View" style="ellipse;whiteSpace=wrap;html=1;" vertex="1" parent="1">
          <mxGeometry x="434" y="414" width="80" height="26.67" as="geometry" />
        </mxCell>
        <mxCell id="97QvW6mPX6YaauCwHjOO-57" style="edgeStyle=orthogonalEdgeStyle;rounded=0;orthogonalLoop=1;jettySize=auto;html=1;exitX=0.5;exitY=0;exitDx=0;exitDy=0;entryX=0.307;entryY=0.996;entryDx=0;entryDy=0;entryPerimeter=0;" edge="1" parent="1" source="97QvW6mPX6YaauCwHjOO-55" target="97QvW6mPX6YaauCwHjOO-32">
          <mxGeometry relative="1" as="geometry" />
        </mxCell>
        <mxCell id="97QvW6mPX6YaauCwHjOO-55" value="Edit" style="ellipse;whiteSpace=wrap;html=1;" vertex="1" parent="1">
          <mxGeometry x="343" y="414.0000000000001" width="80" height="26.67" as="geometry" />
        </mxCell>
        <mxCell id="97QvW6mPX6YaauCwHjOO-59" style="edgeStyle=orthogonalEdgeStyle;rounded=0;orthogonalLoop=1;jettySize=auto;html=1;exitX=0;exitY=0.5;exitDx=0;exitDy=0;entryX=0.98;entryY=0.74;entryDx=0;entryDy=0;entryPerimeter=0;" edge="1" parent="1" source="97QvW6mPX6YaauCwHjOO-56" target="97QvW6mPX6YaauCwHjOO-32">
          <mxGeometry relative="1" as="geometry" />
        </mxCell>
        <mxCell id="97QvW6mPX6YaauCwHjOO-56" value="Create" style="ellipse;whiteSpace=wrap;html=1;" vertex="1" parent="1">
          <mxGeometry x="494" y="384.33000000000004" width="80" height="26.67" as="geometry" />
        </mxCell>
        <mxCell id="97QvW6mPX6YaauCwHjOO-69" style="edgeStyle=orthogonalEdgeStyle;rounded=0;orthogonalLoop=1;jettySize=auto;html=1;entryX=0;entryY=1;entryDx=0;entryDy=0;exitX=0.405;exitY=0.007;exitDx=0;exitDy=0;exitPerimeter=0;" edge="1" parent="1" source="97QvW6mPX6YaauCwHjOO-62" target="97QvW6mPX6YaauCwHjOO-40">
          <mxGeometry relative="1" as="geometry">
            <mxPoint x="319" y="485" as="sourcePoint" />
            <mxPoint x="354.6400000000001" y="477.20000000000005" as="targetPoint" />
            <Array as="points">
              <mxPoint x="316" y="487" />
            </Array>
          </mxGeometry>
        </mxCell>
        <mxCell id="97QvW6mPX6YaauCwHjOO-62" value="View" style="ellipse;whiteSpace=wrap;html=1;" vertex="1" parent="1">
          <mxGeometry x="284" y="494" width="80" height="26.67" as="geometry" />
        </mxCell>
        <mxCell id="97QvW6mPX6YaauCwHjOO-72" style="edgeStyle=orthogonalEdgeStyle;rounded=0;orthogonalLoop=1;jettySize=auto;html=1;exitX=0;exitY=0;exitDx=0;exitDy=0;entryX=0.607;entryY=0.988;entryDx=0;entryDy=0;entryPerimeter=0;" edge="1" parent="1" source="97QvW6mPX6YaauCwHjOO-63" target="97QvW6mPX6YaauCwHjOO-40">
          <mxGeometry relative="1" as="geometry" />
        </mxCell>
        <mxCell id="97QvW6mPX6YaauCwHjOO-63" value="Edit" style="ellipse;whiteSpace=wrap;html=1;" vertex="1" parent="1">
          <mxGeometry x="434" y="510.67" width="80" height="26.67" as="geometry" />
        </mxCell>
        <mxCell id="97QvW6mPX6YaauCwHjOO-71" style="edgeStyle=orthogonalEdgeStyle;rounded=0;orthogonalLoop=1;jettySize=auto;html=1;exitX=0.5;exitY=0;exitDx=0;exitDy=0;entryX=0.327;entryY=1.052;entryDx=0;entryDy=0;entryPerimeter=0;" edge="1" parent="1" source="97QvW6mPX6YaauCwHjOO-64" target="97QvW6mPX6YaauCwHjOO-40">
          <mxGeometry relative="1" as="geometry" />
        </mxCell>
        <mxCell id="97QvW6mPX6YaauCwHjOO-64" value="Create" style="ellipse;whiteSpace=wrap;html=1;" vertex="1" parent="1">
          <mxGeometry x="344" y="520.6700000000001" width="80" height="26.67" as="geometry" />
        </mxCell>
        <mxCell id="97QvW6mPX6YaauCwHjOO-73" style="edgeStyle=orthogonalEdgeStyle;rounded=0;orthogonalLoop=1;jettySize=auto;html=1;exitX=0;exitY=0.5;exitDx=0;exitDy=0;entryX=0.78;entryY=0.924;entryDx=0;entryDy=0;entryPerimeter=0;" edge="1" parent="1" source="97QvW6mPX6YaauCwHjOO-65" target="97QvW6mPX6YaauCwHjOO-40">
          <mxGeometry relative="1" as="geometry" />
        </mxCell>
        <mxCell id="97QvW6mPX6YaauCwHjOO-65" value="Delete" style="ellipse;whiteSpace=wrap;html=1;" vertex="1" parent="1">
          <mxGeometry x="474" y="484.00000000000006" width="80" height="26.67" as="geometry" />
        </mxCell>
        <mxCell id="97QvW6mPX6YaauCwHjOO-68" style="edgeStyle=orthogonalEdgeStyle;rounded=0;orthogonalLoop=1;jettySize=auto;html=1;exitX=0.5;exitY=1;exitDx=0;exitDy=0;" edge="1" parent="1" source="97QvW6mPX6YaauCwHjOO-63" target="97QvW6mPX6YaauCwHjOO-63">
          <mxGeometry relative="1" as="geometry" />
        </mxCell>
        <mxCell id="97QvW6mPX6YaauCwHjOO-76" value="" style="edgeStyle=orthogonalEdgeStyle;rounded=0;orthogonalLoop=1;jettySize=auto;html=1;exitX=0;exitY=0.5;exitDx=0;exitDy=0;entryX=0.937;entryY=0.884;entryDx=0;entryDy=0;entryPerimeter=0;endArrow=baseDash;endFill=0;dashed=1;" edge="1" parent="1" source="97QvW6mPX6YaauCwHjOO-33" target="97QvW6mPX6YaauCwHjOO-75">
          <mxGeometry relative="1" as="geometry">
            <mxPoint x="514" y="309" as="sourcePoint" />
            <mxPoint x="466" y="198" as="targetPoint" />
            <Array as="points">
              <mxPoint x="554" y="309" />
              <mxPoint x="554" y="254" />
              <mxPoint x="544" y="254" />
              <mxPoint x="544" y="224" />
            </Array>
          </mxGeometry>
        </mxCell>
        <mxCell id="97QvW6mPX6YaauCwHjOO-75" value="&amp;lt;&amp;lt;include&amp;gt;&amp;gt;" style="text;html=1;strokeColor=none;fillColor=none;align=center;verticalAlign=middle;whiteSpace=wrap;rounded=0;" vertex="1" parent="1">
          <mxGeometry x="484" y="197.32999999999998" width="60" height="30" as="geometry" />
        </mxCell>
        <mxCell id="97QvW6mPX6YaauCwHjOO-79" value="" style="edgeStyle=orthogonalEdgeStyle;rounded=0;orthogonalLoop=1;jettySize=auto;html=1;exitX=0;exitY=0.5;exitDx=0;exitDy=0;entryX=1;entryY=0.5;entryDx=0;entryDy=0;dashed=1;endArrow=baseDash;endFill=0;" edge="1" parent="1" source="97QvW6mPX6YaauCwHjOO-33" target="97QvW6mPX6YaauCwHjOO-77">
          <mxGeometry relative="1" as="geometry">
            <mxPoint x="514" y="309" as="sourcePoint" />
            <mxPoint x="474" y="379" as="targetPoint" />
            <Array as="points">
              <mxPoint x="564" y="309" />
              <mxPoint x="564" y="364" />
            </Array>
          </mxGeometry>
        </mxCell>
        <mxCell id="97QvW6mPX6YaauCwHjOO-77" value="&amp;lt;&amp;lt;include&amp;gt;&amp;gt;" style="text;html=1;strokeColor=none;fillColor=none;align=center;verticalAlign=middle;whiteSpace=wrap;rounded=0;" vertex="1" parent="1">
          <mxGeometry x="484" y="349" width="60" height="30" as="geometry" />
        </mxCell>
        <mxCell id="97QvW6mPX6YaauCwHjOO-81" value="" style="edgeStyle=orthogonalEdgeStyle;rounded=0;orthogonalLoop=1;jettySize=auto;html=1;entryX=1;entryY=0.5;entryDx=0;entryDy=0;dashed=1;endArrow=baseDash;endFill=0;" edge="1" parent="1" source="97QvW6mPX6YaauCwHjOO-33" target="97QvW6mPX6YaauCwHjOO-80">
          <mxGeometry relative="1" as="geometry">
            <mxPoint x="574" y="309" as="sourcePoint" />
            <mxPoint x="474" y="289" as="targetPoint" />
          </mxGeometry>
        </mxCell>
        <mxCell id="97QvW6mPX6YaauCwHjOO-80" value="&amp;lt;&amp;lt;include&amp;gt;&amp;gt;" style="text;html=1;strokeColor=none;fillColor=none;align=center;verticalAlign=middle;whiteSpace=wrap;rounded=0;" vertex="1" parent="1">
          <mxGeometry x="484" y="294" width="60" height="30" as="geometry" />
        </mxCell>
        <mxCell id="97QvW6mPX6YaauCwHjOO-83" value="" style="edgeStyle=orthogonalEdgeStyle;rounded=0;orthogonalLoop=1;jettySize=auto;html=1;entryX=0;entryY=0.75;entryDx=0;entryDy=0;entryPerimeter=0;dashed=1;endArrow=baseDash;endFill=0;" edge="1" parent="1" source="97QvW6mPX6YaauCwHjOO-15" target="97QvW6mPX6YaauCwHjOO-74">
          <mxGeometry relative="1" as="geometry">
            <mxPoint x="314" y="134" as="targetPoint" />
            <mxPoint x="244" y="127" as="sourcePoint" />
          </mxGeometry>
        </mxCell>
        <mxCell id="97QvW6mPX6YaauCwHjOO-74" value="&amp;lt;&amp;lt;include&amp;gt;&amp;gt;" style="text;html=1;strokeColor=none;fillColor=none;align=center;verticalAlign=middle;whiteSpace=wrap;rounded=0;" vertex="1" parent="1">
          <mxGeometry x="244" y="114" width="60" height="30" as="geometry" />
        </mxCell>
        <mxCell id="97QvW6mPX6YaauCwHjOO-85" value="IdeaNestle Blog Website" style="text;html=1;strokeColor=none;fillColor=none;align=center;verticalAlign=middle;whiteSpace=wrap;rounded=0;fontStyle=1;fontSize=21;" vertex="1" parent="1">
          <mxGeometry x="240" y="47" width="288" height="30" as="geometry" />
        </mxCell>
      </root>
    </mxGraphModel>
  </diagram>
</mxfile>
